<?xml version="1.0" encoding="utf-8"?>
<!-- Generator: Adobe Illustrator 24.2.1, SVG Export Plug-In . SVG Version: 6.00 Build 0)  -->
<svg version="1.1" id="Layer_1" xmlns="http://www.w3.org/2000/svg" xmlns:xlink="http://www.w3.org/1999/xlink" x="0px" y="0px"
	 width="32px" height="32px" viewBox="0 0 32 32" style="enable-background:new 0 0 32 32;" xml:space="preserve">
<style type="text/css">
	.st0{fill-rule:evenodd;clip-rule:evenodd;fill:#F06364;}
	.st1{fill-rule:evenodd;clip-rule:evenodd;fill:#FFFFFF;stroke:#FFFFFF;stroke-miterlimit:10;}
</style>
<path class="st0" d="M24.15,32H7.85C3.52,32,0,28.48,0,24.15V7.85C0,3.52,3.52,0,7.85,0h16.29C28.48,0,32,3.52,32,7.85v16.29
	C32,28.48,28.48,32,24.15,32z"/>
<path class="st1" d="M14.38,16.33L14.38,16.33L14.38,16.33z M14.82,11.25c0.48,0.48,1.24,0.51,1.79,0.11l0.31-0.31l3.56-3.57
	c0.37-0.37,0.81-0.7,1.35-0.72c0.99-0.08,1.42,0.77,1.42,1.63v10.02c0,0.63-0.53,1.18-1.17,1.18c-0.45,0-0.74-0.23-1.05-0.52
	c-1.28-1.24-2.54-2.51-3.81-3.77l-0.02,0.02l-4.62-4.62l-0.48-0.47c-0.59-0.58-1.34-0.9-2.17-0.94c-2.68-0.16-3.93,1.78-3.93,4.26
	v11.07c0,2.21,1.95,3.59,4.03,3.59c1.25,0,2.36-0.63,3.21-1.5l3.73-3.81l0.31-0.32c0.39-0.55,0.35-1.3-0.12-1.77
	c-0.48-0.48-1.25-0.51-1.79-0.11l-0.31,0.31l-3.55,3.56c-0.37,0.37-0.81,0.7-1.35,0.72c-0.99,0.08-1.42-0.77-1.42-1.63l0-10.02
	c0-0.63,0.53-1.18,1.17-1.18c0.45,0,0.74,0.23,1.05,0.52c1.15,1.11,2.28,2.25,3.42,3.37l2.66,2.66l1.88,1.88l0.01-0.01l0.96,0.95
	c0.59,0.58,1.34,0.89,2.17,0.94c2.68,0.16,3.93-1.77,3.93-4.26V7.41c0-2.21-1.95-3.59-4.03-3.59c-1.25,0-2.36,0.63-3.21,1.5
	l-3.74,3.83L14.7,9.47C14.31,10.02,14.34,10.77,14.82,11.25L14.82,11.25z"/>
</svg>
