<svg xmlns="http://www.w3.org/2000/svg" width="247.36" height="522.61" xmlns:v="https://vecta.io/nano"><style>.B,.C,.F{isolation:isolate}</style><path d="M187.82 339.27c-15.5-6.86-41.15-17.9-71.12-9.54a88.34 88.34 0 0 0-41 25.05 85.88 85.88 0 0 0-10.24 14.16c-.75-.9-4-5.22-9.54-6-4.33-.45-7.46 1.64-12.53 5.2-2.08 1.5-3.43 2.84-3.43 4.33a5.35 5.35 0 0 0 1.79 3.43c1.94 1.94 4.48 5.8 7.3 14.16a72.18 72.18 0 0 0-8.2 11.18c-3.13 5.67-3 7.46-6.4 12.53-4 6.1-5.37 5.5-7.3 9.54-3.43 7.16-1.5 14.46-.9 16.4.44 1.8 3 9.7 10.3 13.87 3.57 1.93 5.06 1.34 9.54 3 4 1.34 9.4 4.17 15.06 10.3l6 21.17a28.79 28.79 0 0 0 6.86 2.08 28.26 28.26 0 0 0 11.63-.44c-.75-3.28-1.64-6.4-2.54-9.55l10 3.88c.75 2.24 2.1 5.67 3.43 10 3 9.24 3.28 11.93 5.67 13.42 1.2.74 4.77 2.53 13-2.1-.6-5.66-1.34-11.18-2.1-16.85a210.08 210.08 0 0 0 20.72 3.88c10.9 1.5 29.23 3.88 51.74.45 4.77-.75 8.65-1.5 11.18-2.1l-4.32 28a34.9 34.9 0 0 0 10 1.34 39 39 0 0 0 10.29-1.79 214.23 214.23 0 0 0 22.06-43.09c5.82-15.8 11.18-30 11.18-49.64a92.33 92.33 0 0 0-6.85-37.13 88.13 88.13 0 0 0-19.83-29.37c-11.48-11.14-22.96-16.2-31.45-19.8z" fill="#fff"/><path d="M233.74 472.86c-1.05 2.68 3.28 3.73 4.32 1.2 8.65-23.1 12.23-48.3 6.56-72.6-4.47-18.63-14.46-36.38-29.22-48.75-16.25-13.57-38.62-20.87-59.2-25.05-36.38-7.45-74.1 8.65-92.44 41.45-1.34 2.53 2.53 4.77 3.88 2.24a81.58 81.58 0 0 1 50.81-38.92c24.6-6.26 52 1.34 74.7 11.78s38.47 29.07 45.63 52.78c7.45 25.05 3.87 51.74-5.07 75.9zM105.52 415.3c-.3 2.83 4.17 2.83 4.32 0 .75-8.2-.3-19.68-7.16-25.35a8.49 8.49 0 0 0-9.09-1.49c-3.43 1.5-6.1 5.52-10 5.07-2.83-.3-2.83 4.18 0 4.47 5.66.45 8.94-6.1 14-5.36 8.2 1.2 8.5 16.55 7.9 22.66z"/><path d="M86.88 394.3c2.53 1 4.77-2.84 2.1-3.88-7.9-3.43-20.58 1.34-16.25 11.93 1.78 4.32 6.56 6.4 10.58 7.9 7.75 3 15.66 5.52 23.4 8.2 2.68.9 3.88-3.43 1.2-4.32l-18-6.27c-3-1-6.26-1.93-8.94-3.43-8.06-4.47-2.54-13.7 6-10.13zm-25.35-30.43c-2.53-1.5-4.77 2.4-2.38 3.88 1.8 1 4 2.23 4.92 4.32 1.2 2.83-.75 3.88-3 4.92a40.12 40.12 0 0 0-8.5 4.92c-2.24 1.8.9 4.92 3.13 3.13 3-2.23 6.1-3.13 9.24-4.77a7 7 0 0 0 4-4.92c1.2-5.37-3.43-9.1-7.46-11.48z"/><path d="M64.66 378.93c-.3-3-4.62-1.64-4.32 1.2.75 4.47-2.4 10.6-7.75 8.95-3-.9-4-4.18-4.92-6.86-1.34-4-2.54-7.9-6.4-10.3-2.4-1.5-4.63 2.4-2.24 3.88 3.73 2.23 4 7.45 5.67 11.18 1.5 3.13 3.72 5.82 7.3 6.56 8.8 1.8 13.87-7 12.67-14.6z"/><path d="M61.38 369.24c1.94 2.1 5.07-1.05 3.13-3.13-8-8.95-19.53-1.8-25.94 5.22-1.94 2.08 1.2 5.2 3.13 3.13 4.63-5.07 13.27-12.23 19.68-5.22zm7.16 48.3c-2.83.75-1.64 5.07 1.5 4.48a5.18 5.18 0 0 0 3.58-6.12 4.88 4.88 0 0 0-6.15-3.29 4.54 4.54 0 0 0-3 6.56 5 5 0 0 0 6.86 1.94c2.54-1.5.15-5.36-2.23-3.87-.15 0-.15.15 0 0h0c-.15 0-.3-.15-.45-.15.3.15-.3-.3 0 0l-.3-.3c.15.3.15.15 0 0 0 .3.15.3 0 0v.15c-.15.15-.15 0 0-.15-.3.15-.15.15 0 0s.15-.15 0 0c.15-.15.15-.15.3-.15h.3c-.45-.15.15 0-.15-.15h0v.6c.15-.15.15 0 0 .15h0a.31.31 0 0 1-.3.29zm-20.72-12.82a2.19 2.19 0 0 0-1.49 2.69 2.25 2.25 0 0 0 2.68 1.49 3.74 3.74 0 0 0 2.38-4.62 3.6 3.6 0 0 0-4.32-2.67 3.79 3.79 0 0 0 1.94 7.31c1.154-.33 1.824-1.53 1.495-2.685s-1.53-1.824-2.685-1.495c.15 0 .9.15.6 0a.55.55 0 0 1 .45.15h0c.15.15.3.45.15.15s.15.6 0 .15 0 .45 0 0-.15.6 0 .15c0 .15-.15.15-.15.3h0a1.9 1.9 0 0 1-.6.44.93.93 0 0 1-1-.29c.15.15-.3-.45-.15-.15s-.15-.45 0 0 0-.45 0 0v-.15c-.15.3.15-.45 0-.15a1.5 1.5 0 0 1 .75-.6zm2.38-13.56c1.94-2.1-1.2-5.37-3.13-3.14a46 46 0 0 0-10.61 21.77c-.6 2.83 3.73 4 4.33 1.2a40.82 40.82 0 0 1 9.39-19.82z"/><path d="M39.32 413.82c.864-.864.864-2.266 0-3.13s-2.266-.864-3.13 0a10.92 10.92 0 0 1-5.07 2.53c-2.84.6-1.64 4.92 1.2 4.32a15.18 15.18 0 0 0 7-3.72z"/><path d="M31.86 414.6c-3-.3-2.83 4.18.15 4.62 7.46.9 14.32 4.78 17.9 11.63s4.48 18.64-4.32 21.62C38 455 31.87 448.6 29.8 441.9c-1.8-5.67-3-19.24 3.13-22.8 2.53-1.5.3-5.37-2.24-3.88-9 5.22-7.9 21.47-4.62 29.67S37.7 459.6 46.78 456.9c10.44-3.14 11.63-16.1 8.5-24.9-3.73-10.3-12.8-16.4-23.4-17.4zm11.04 24.12a2.19 2.19 0 0 0 2.23 2.23 2.29 2.29 0 0 0 2.24-2.23v-.9a2.24 2.24 0 0 0-4.47 0v.9zm-11.93-8.2a2.29 2.29 0 0 0 0 3.13 2.17 2.17 0 0 0 3.13 0 4.19 4.19 0 0 1 .74-.9c.867-.864.87-2.268.005-3.135s-2.268-.87-3.135-.005a3.91 3.91 0 0 1-.74.9zm50.4 5.08c1.94-2.1-1.34-5.37-3.13-3.43-.74.9-2.53 1.2-3.28.15a2.5 2.5 0 0 0-3.13-.75 2.36 2.36 0 0 0-.75 3.13c2.4 3.28 7.46 4 10.3.9z"/><path d="M76.46 436.03c1-2.83-3.28-3.87-4.32-1.2-2.4 6.56-10.44 10.14-16.85 7.16-2.53-1.2-4.77 2.68-2.24 3.87a17.11 17.11 0 0 0 23.41-9.84zm-29.1 17.3c-2.24-1.64-5.52 1.5-3.13 3.13l15.35 12.08c2.24 1.78 5.37-1.35 3.14-3.14l-15.36-12.07z"/><path d="M63.46 467.34c-1-2.68-5.37-1.5-4.32 1.2a130.7 130.7 0 0 1 6.32 21.07c.6 2.83 4.92 1.64 4.32-1.2a131.31 131.31 0 0 0-6.26-21zm175.8 1.5c.75-2.83-3.57-4-4.17-1.2a119.51 119.51 0 0 1-12.52 32.21c-2.7 4.76-6.1 11.18-10.1 14.9-5.22 4.78-12.53 3.14-18.94 2.1a23.41 23.41 0 0 1 1.64 2.09 231.74 231.74 0 0 1 4.18-26.69c.6-2.83-3.73-4-4.33-1.2a250.36 250.36 0 0 0-4.32 27.88 2.2 2.2 0 0 0 1.64 2.09c5.66.9 13.27 2.83 18.8.44 4.32-1.8 7.3-7 9.84-10.73a123.81 123.81 0 0 0 18.33-41.9z"/><path d="M195.46 492.84c2.83-.6 1.64-4.92-1-4.33a174 174 0 0 1-39.22 4.18c-12.22-.15-28.77 0-39.65-6.26-2.54-1.5-4.78 2.38-2.24 3.87 10.73 6.27 26.84 6.56 39.06 6.86a182.22 182.22 0 0 0 43.05-4.32z"/><path d="M114.76 481.5c-.45-2.84-4.77-1.64-4.32 1.2a217.76 217.76 0 0 1 2.38 16.1c.45 3.73.15 6.1-4.32 6.26-2.7.15-5.67-.9-8.2-1.64l1.5 1.5-6.4-21.76c-.9-2.7-5.22-1.64-4.33 1.2 1 3.58 2.24 7.3 3.28 10.88.9 3.13 1.35 8 3.13 10.9 2.24 3.28 9.7 3.58 13.42 3.43 4.48-.15 6.86-2.54 6.7-7-.15-7-1.64-14.17-2.83-21z"/><path d="M93.9 486.13c2.83.74 3.87-3.58 1.2-4.33a35.8 35.8 0 0 1-17.44-10.28c-1.94-2.1-5.07 1-3.14 3.13a40.48 40.48 0 0 0 19.39 11.48z"/><path d="M86.58 480.02c-1-2.7-5.37-1.5-4.17 1.2a25.82 25.82 0 0 1 1.49 10.14l2.23-2.24a82.53 82.53 0 0 1-13.56-1.34c-2.84-.45-4 3.73-1.2 4.32a82.09 82.09 0 0 0 14.76 1.52 2.29 2.29 0 0 0 2.24-2.23 29.58 29.58 0 0 0-1.79-11.33zM197.5 361.6c2.68 1.05 3.87-3.28 1.2-4.32a185.32 185.32 0 0 0-61.58-12.82c-2.83-.15-2.83 4.32 0 4.47a187 187 0 0 1 60.39 12.67z"/><path d="M196.46 356.27c-2.08 1.94 1.2 5.07 3.28 3.13l.3-.3a2.23 2.23 0 0 0 .3-2.68c-3.28-7.6-21.77-8.65-28.63-9.84a391.47 391.47 0 0 0-39.51-4.63c-2.83-.15-2.83 4.33 0 4.48 11.34.74 22.82 1.93 34.15 3.72q7.6 1.13 15.2 2.7c3.9.77 13.12 1.64 14.9 5.77a16.29 16.29 0 0 1 .3-2.68l-.3.3z"/><g fill="#3f3f3f"><path class="B" d="M55.57 363.6c-.75.15-14.76 2.54-15.5 8.65-.74 5.07 8.35 7.3 8.65 14.46 0 2.84-1.34 3.13-5.22 10.44-5.66 10.58-4.62 13.12-9.24 17.9-4.18 4.32-5.67 3-8 6.4-4.48 6.56-2.4 16.4 1.2 22.5a26 26 0 0 0 11.48 10.44c4.62 2.1 6 1 10.44 2.83 7 2.84 11 8.35 13.27 11.48a41.3 41.3 0 0 1 7.4 21.89l16.1.6-2.23-11.48 10.43 5.8 5.22 19.68h15.06l1.2-15.06c21.92 7 38.77 6.56 50.25 4.63 12.08-2.1 26.1-6.86 29.37-1.8 1.2 1.94.45 6.4-1.2 15.06-1.2 6.1-2.24 9.1-.6 10.88s5.37 1.34 8.05.6l6.4-37.43c-9.24.9-65.3 5.82-92.88-17.9-5.52-4.62-15.8-13.57-15.06-24.15.6-9.25 9.1-12.82 7.45-20.73-.44-1.64-1.34-4-15.06-15.05-9.7-7.9-10.73-7.9-13.26-10.44-4.82-4.63-9.82-13.13-10.44-29.38a39 39 0 0 0-13.27-.86z" opacity=".12"/><path class="C" d="M100.6 416.35c-1 .9-5.37 4.18-10.9 3.43-5.07-.6-8-4-10.43-6.86a29.34 29.34 0 0 1-6.42-13.86l27.74 17.3z" opacity=".14"/></g><circle cx="180.46" cy="48.61" r="38" fill="#ff6363"/><g fill="#161616"><path d="M.6 104.6c-2.83 17.44 4.92 33.84 15.2 47.4 10.44 13.72 24.6 24.9 42 27.44 2.84.44 4-3.88 1.2-4.33-15.02-2.1-27.54-11.05-37.1-22.52-10.58-12.82-19.83-29.52-17-46.67.44-3-3.88-4.17-4.33-1.34z"/><path d="M4.46 104.6a35 35 0 0 1 14.61-6.56c2.83-.6 1.64-4.92-1.2-4.32a39.88 39.88 0 0 0-16.55 7.6c-2.24 1.94.9 5.07 3.13 3.28z"/><path d="M19.82 98.33c13.27 3.58 25.35 19.08 33 29.82a129.87 129.87 0 0 1 17.9 36.52c.9 2.7 5.2 1.64 4.32-1.2a131.56 131.56 0 0 0-21.17-41.45c-8-10.58-19.53-24.45-32.8-28-2.84-.74-4 3.58-1.2 4.33z"/><path d="M58.74 179.73a43.88 43.88 0 0 0 14.72-11.92c1.8-2.24-1.34-5.37-3.13-3.14a39.83 39.83 0 0 1-13.72 11.19c-2.83 1.34-.45 5.07 2.1 3.87z"/><path d="M11.46 98.6c-.45 17.14 9.1 34.3 19.23 47.56 9.54 12.52 23 22.06 39.36 21.76 2.83 0 2.83-4.47 0-4.47-16.55.3-29.37-10.43-38.32-23.4-8.2-12.07-16.1-26.4-15.8-41.44 0-2.84-4.47-2.84-4.47 0z"/><path d="M6.7 125.02a25.87 25.87 0 0 1 8.06-6.41c2.53-1.2.3-5.06-2.24-3.87a25.6 25.6 0 0 0-8.95 7c-1.8 2.23 1.35 5.5 3.13 3.28zm-2.38-10.14a25.94 25.94 0 0 1 9.14-4.48c2.84-.74 1.64-5.06-1.2-4.32A33.42 33.42 0 0 0 2.13 111c-2.23 1.64-.15 5.52 2.24 3.88zm15.8 37.72l9.54-7.6c2.24-1.78-.9-4.92-3.13-3.13l-9.54 7.6c-2.38 1.8.9 4.92 3.13 3.13zm8.95 9.84l7.6-5.82a2.27 2.27 0 0 0-2.38-3.87l-7.6 5.86a2.28 2.28 0 0 0 2.39 3.88zm15.8 11.16c2.54-2.53 5.22-4.92 7.76-7.45 2.08-1.94-1-5.22-3.14-3.14-2.53 2.54-5.2 4.92-7.75 7.46-2.1 1.94 1 5.22 3.13 3.13zm-24.3-65.73c2.83 2.53 5.52 5.22 8.35 7.75a16.29 16.29 0 0 1-.3-2.68c-3 4.77-4.62 10.88-.6 15.65a10.12 10.12 0 0 0 5.67 3.43 19.76 19.76 0 0 0 3 0c.75-.15 1.34-.44 2.1-.6 8.2-1.35 9.7 1.8 4.32 9.24-2.68 1-1.5 5.37 1.2 4.32 5.5-2.08 9.4-8.2 6.1-13.86a9.67 9.67 0 0 0-7.6-4.77 22 22 0 0 0-3.14.15c-3.57 1.93-6.7.44-9.4-4.18a11.85 11.85 0 0 1 2.37-6.72 2.53 2.53 0 0 0-.3-2.68c-2.83-2.54-5.52-5.22-8.35-7.75-2.4-2.4-5.52.74-3.43 2.68z"/><path d="M46.66 143.8l7.46 8.8c1.8 2.23 5.07-1.05 3.13-3.13l-7.46-8.8c-1.8-2.24-4.92 1-3.13 3.13zm99.6-69.48c-13.12-10.28-21.17-39.5-10.14-53.37 13-16 38.76-22.8 53.23-5.82 12.1 14.17 12.82 36.38 3.72 52.33-5.5 9.7-13.56 14.32-24.75 14.47a34.11 34.11 0 0 1-25.64-10.74c-1.94-2.08-5.07 1-3.13 3.13 10.88 11.63 30.4 16 44.88 8.5 15.05-7.9 20.72-29.37 18.93-45-1.8-15.8-11.48-32.8-27.88-37-15.8-4-39.2 7.3-46.22 22.07-4.32 9.1-2.68 20-.45 29.52s6.12 18.63 14 24.75c2.38 2.08 5.66-1 3.43-2.84z"/><path d="M158.78 18.26c0-.15-.15-.44-.15-.6-.3.9-.74 1.64-1 2.53-1.34-.45-1.5-.3-.6.9a25.64 25.64 0 0 1 2.09 4.62l1.5-2.7c-5.8 1.8-13.12 5.82-11 13.13a6.86 6.86 0 0 0 4.32 4.92c1.8.74 2.83 0 4.62-.15 2.7-1.35 5.52-.9 8.2 1.5 2.24 6.56.45 9.84-5.5 10.28a2.31 2.31 0 0 0-1.94 3.43 51.11 51.11 0 0 1 3.28 7.76c.9 2.68 5.22 1.64 4.32-1.2a37.78 37.78 0 0 0-3.73-8.79c-.6 1.2-1.34 2.23-1.93 3.43 7.15-.15 14-6.86 11-14.32a11.3 11.3 0 0 0-8.05-6.85c-2.1-.45-3.88.44-5.82.44-3.72 0-4.77-.74-2.83-4.32 1.8-3.28 2.83-3.73 6.26-4.77a2.19 2.19 0 0 0 1.49-2.69c-1-3-2.08-7.15-5.07-8.64a2.35 2.35 0 0 0-2.23 0c-.15.15-.45.3-.6.44a2.43 2.43 0 0 0-1 2.54c0 .15.15.45.15.6.6 2.4 4.92 1.2 4.32-1.5zM172.8 5.6c22.66-5.8 34.44 18.64 34.88 37.27.15 8.5-.6 18-5.66 25.2-5.56 7.73-15.36 10.12-23.56 13.7-2.68 1.2-.3 5.07 2.24 3.87 9.84-4.32 20.57-7.15 26.4-17.14 5.5-9.54 6-22.22 4.62-32.95-2.4-19.68-18-40-40-34.3-2.83.74-1.64 5.07 1.05 4.32z"/><path d="M197.7 65.97l6.27-1.36c2.83-.6 1.64-4.92-1.2-4.32l-6.3 1.32c-2.83.6-1.64 4.92 1.2 4.32zm5.36-17.14l7-2.4c2.68-.9 1.5-5.22-1.2-4.32l-7 2.38c-2.68.9-1.5 5.22 1.2 4.33zm-1.5-13.23l4.62-.9a2.17 2.17 0 0 0 .977-3.688A2.17 2.17 0 0 0 205 30.54l-4.62.9a2.14 2.14 0 0 0-1.49 2.69 2.25 2.25 0 0 0 2.68 1.49zm-8.94-18.83a17 17 0 0 0 8.2-.59c2.68-.9 1.5-5.22-1.2-4.33a12.87 12.87 0 0 1-5.81.6 2.27 2.27 0 0 0-2.69 1.49 2.18 2.18 0 0 0 1.5 2.83zm-24.75 282.1c-19.54-5.67-32.2-24.75-32.5-44.73-.44-22.8 19.4-42.34 42.05-32.2 19.08 8.5 26.4 30.86 27 50.4.3 9.4-1.34 20.73-9.84 26.24-8.8 5.82-20.27 3.58-29.67.6-2.68-.9-3.87 3.43-1.2 4.32 15.2 4.92 34.44 5.22 42-11.78 7.3-16.25 2.68-39.5-5.67-54.42s-26.24-26.68-44-21.47c-18.5 5.52-26.84 25.65-24.75 43.54 2.23 20.13 15.8 38.32 35.48 44 2.7.75 3.88-3.58 1-4.47zm-9.84-66.06a40 40 0 0 1 8.34 13.27l2.7-2.68c-7.16-1.5-10.9 4.62-10.44 11.18.15 2.24.6 4.92 2.83 6.1 1.64.9 4 .3 5.67.3a30.37 30.37 0 0 1 5.22-.15c7.9.6 8.94 4 3.28 10.3-1.5.15-3 1.8-1.94 3.43a111.85 111.85 0 0 1 7.31 13c1.2 2.53 5.07.3 3.87-2.24a138.27 138.27 0 0 0-7.3-13c-.6 1.2-1.34 2.24-1.94 3.43 6.26-.75 11.48-6.56 8.2-13a12 12 0 0 0-7.16-5.52 20.76 20.76 0 0 0-6.71-.74l-5.22.44c-2.83-3.42-1.78-6.4 3.28-8.94 1.5.3 3.43-1 2.7-2.68a43.8 43.8 0 0 0-9.54-15.21c-1.94-2.54-5.07.6-3.13 2.68z"/><path d="M142.53 222.82c-19.23 16.55-25.2 45-10.74 66.65 13.946 21.084 42.238 27.06 63.52 13.42 2.38-1.5.15-5.37-2.24-3.88a41.75 41.75 0 0 1-58.61-13.72c-11.93-20-5.82-44.58 11.33-59.34 2.1-1.8-1-4.92-3.28-3.13z"/></g><g fill="#3f3f3f"><path class="C" d="M154.46 220.88a65.13 65.13 0 0 0-5.67 28.93c.15 3.87 1.2 25.5 16.85 40.1 10.73 10 22.07 10.6 21.62 14-.6 3.73-14.6 6.7-27.3 3.58-13.86-3.43-26.24-14.46-31.6-28.93-1.35-3.72-6.7-18.63.74-34.88a44.61 44.61 0 0 1 25.35-22.8z" opacity=".14"/><path class="F" d="M13.86 98.18a96.38 96.38 0 0 0 6 24.45c3.88 9.54 10.6 26.7 28 36.53a55.56 55.56 0 0 0 24.46 6.86 24.58 24.58 0 0 1-8.35 9.24 25.35 25.35 0 0 1-8 3.28 80.84 80.84 0 0 1-24.9-12.37c-6.12-4.63-20.28-15.5-26.4-35.34a64.27 64.27 0 0 1-1.94-28.92c3.52-1.3 7.24-2.54 11.12-3.73z" opacity=".15"/><path class="C" d="M175.33 2.3a44.16 44.16 0 0 1 17.59 16.85c7.6 13 6 25.8 5.22 32.05-.74 5.67-1.8 14-8.05 22.07a35.84 35.84 0 0 1-9.69 8.8 29.64 29.64 0 0 0 18.49-7.61c5.36-5.07 7-10.88 8.8-17.3a55 55 0 0 0 1.64-21.17 49.47 49.47 0 0 0-5.21-16.4c-2.84-5.37-6.56-12.23-14.47-15.66a26 26 0 0 0-14.31-1.64z" opacity=".14"/></g></svg>